PathFileType  4	(X/Y/Z) C:\Users\antoi\Documents\MyRepositories\mobilecap\ResultsAnalysis
DataRate	CameraRate	NumFrames	NumMarkers	Units	OrigDataRate	OrigDataStartFrame	OrigNumFrames
100.0	100.0	4	51	mm	100.0	184	245
Frame#	Time	r_knee			r_shank_antsup			r_ankle			r_calc			r_5meta			r_toe			L_knee			L_shank_antsup			L_ankle			L_calc			L_5meta			L_toe			r_sh2			r_sh3			r_sh4			L_sh2			L_sh3			r_thigh1			r_thigh2			r_thigh3			r_thigh4			r_thigh5			L_thigh1			L_thigh2			L_thigh3			L_thigh4			r.ASIS			r.PSIS			L.ASIS			L.PSIS			C7			R_Shoulder			L_Shoulder			R_Sternum			L_Sternum			R_humerus			R_elbow_med			R_elbow_lat			R_forearm			R_wrist_radius			R_wrist_ulna			L_humerus			L_elbow_med			L_elbow_lat			L_forearm			L_wrist_radius			L_wrist_ulna			R_HJC			L_HJC			R_HJC_reg			L_HJC_reg			
		X1	Y1	Z1	X2	Y2	Z2	X3	Y3	Z3	X4	Y4	Z4	X5	Y5	Z5	X6	Y6	Z6	X7	Y7	Z7	X8	Y8	Z8	X9	Y9	Z9	X10	Y10	Z10	X11	Y11	Z11	X12	Y12	Z12	X13	Y13	Z13	X14	Y14	Z14	X15	Y15	Z15	X16	Y16	Z16	X17	Y17	Z17	X18	Y18	Z18	X19	Y19	Z19	X20	Y20	Z20	X21	Y21	Z21	X22	Y22	Z22	X23	Y23	Z23	X24	Y24	Z24	X25	Y25	Z25	X26	Y26	Z26	X27	Y27	Z27	X28	Y28	Z28	X29	Y29	Z29	X30	Y30	Z30	X31	Y31	Z31	X32	Y32	Z32	X33	Y33	Z33	X34	Y34	Z34	X35	Y35	Z35	X36	Y36	Z36	X37	Y37	Z37	X38	Y38	Z38	X39	Y39	Z39	X40	Y40	Z40	X41	Y41	Z41	X42	Y42	Z42	X43	Y43	Z43	X44	Y44	Z44	X45	Y45	Z45	X46	Y46	Z46	X47	Y47	Z47	X48	Y48	Z48	X49	Y49	Z49	X50	Y50	Z50	X51	Y51	Z51	

184	1.83000000	-211.71057	888.20772	-426.55494	-182.29504	766.85126	-404.46796	-277.90065	428.31922	-416.93236	-307.93011	451.68424	-489.19044	-241.26336	267.17185	-397.02107	-165.49030	273.76690	-427.23307	-153.61451	866.83824	-802.31380	-113.83789	766.35737	-789.59287	-185.43543	423.30911	-794.25123	-251.92002	444.62335	-735.80337	-146.51766	268.12437	-793.85351	-100.88700	265.75311	-729.76262	-176.78352	651.99502	-405.07796	-259.32184	763.49991	-392.74496	-253.60069	645.26097	-376.77744	-196.53677	764.99079	-826.12566	-171.31568	645.80126	-840.50231	-102.66623	1117.59276	-406.03419	-107.81665	1005.29327	-411.10641	-162.46337	981.24897	-380.33817	-216.59760	1116.82171	-393.15687	-213.13521	998.86974	-397.65119	-63.39837	1118.08783	-828.45091	-60.87442	982.31645	-812.59135	-173.04977	1111.80395	-856.25921	-170.18013	975.13175	-835.54456	-85.42557	1375.29980	-478.96383	-249.35032	1451.82907	-600.58672	-36.10335	1367.83671	-736.82075	-231.55790	1452.75365	-695.40535	-19.55132	1909.65240	-636.64142	4.91353	1904.96208	-489.68385	43.12575	1890.47993	-744.65410	117.61596	1865.94927	-601.06266	133.58879	1870.90506	-646.98238	33.24005	1929.24833	-362.26185	71.30516	1862.56878	-133.91206	42.69185	1947.54772	-156.79084	206.50476	1982.86786	-201.01937	312.04669	2005.49996	-214.80665	313.94887	2036.07158	-184.74199	117.36674	1872.96793	-876.83906	211.17797	1720.27715	-1038.98660	209.85573	1810.40161	-1045.69581	282.62613	1835.04719	-898.03157	352.18398	1872.12039	-820.03310	382.50236	1885.78787	-852.82154	-173.61457	1315.49211	-530.60168	-132.13989	1298.94327	-739.26856	-164.41390	1309.92268	-532.31648	-132.47113	1311.57003	-702.67692	
185	1.84000000	-210.20853	909.23614	-428.75784	-178.69761	787.64201	-408.39205	-275.53249	449.23651	-415.43573	-307.99813	470.06897	-487.50191	-237.26272	289.80415	-390.69120	-162.68893	295.00818	-424.05360	-153.76797	887.18836	-801.55694	-111.80321	786.81114	-787.26845	-180.15625	442.74101	-794.25968	-246.46171	462.41767	-734.59663	-138.09829	288.10784	-793.63181	-91.66777	286.84200	-730.32254	-173.40646	672.37631	-409.71203	-255.67460	784.35412	-392.82840	-248.55953	665.92768	-377.53442	-193.94811	784.74195	-825.42987	-166.18860	666.14741	-840.63540	-98.64813	1135.88345	-410.83784	-105.82768	1023.79389	-416.41060	-160.20825	1000.39935	-385.21830	-212.14381	1137.16185	-393.95144	-211.02569	1019.19275	-400.76925	-64.02173	1137.07588	-827.95245	-62.75463	1001.08649	-812.65818	-174.06331	1132.10135	-854.05537	-172.60811	995.93119	-831.81537	-84.74886	1397.37245	-478.50294	-249.06961	1468.60641	-601.96890	-34.79346	1388.67759	-740.65194	-232.26783	1468.58706	-694.76824	-16.76587	1929.84815	-636.95408	6.05281	1922.64331	-488.06630	44.26139	1909.20677	-747.70941	117.96750	1879.11686	-598.48154	134.64238	1883.37075	-644.12064	37.26821	1945.38899	-362.20416	84.69279	1875.84973	-138.54513	51.70470	1960.01957	-156.99959	214.66412	2002.30833	-199.43163	318.81877	2030.91588	-212.35013	319.69603	2059.91767	-180.69938	119.19229	1890.18053	-877.96889	219.68186	1736.46059	-1033.30354	216.43869	1826.48834	-1042.77208	287.86274	1855.29895	-894.59932	356.31708	1895.28651	-817.52941	387.66830	1909.11249	-849.16128	-170.32392	1334.64223	-530.72258	-129.61725	1317.39670	-739.48610	-162.24429	1329.13115	-531.15294	-130.84325	1329.09127	-704.55546	
186	1.85000000	-208.43059	928.35715	-431.38698	-177.76770	807.49447	-411.78192	-273.04918	469.55287	-414.59167	-306.72942	487.00009	-487.45032	-233.75585	313.14799	-381.10023	-159.95631	315.42315	-416.67296	-154.52976	906.94169	-800.47148	-110.37382	806.93051	-785.33439	-173.58893	461.56816	-792.55072	-240.43951	478.29075	-732.87206	-126.61243	308.46023	-794.54652	-79.52369	308.24660	-731.87761	-171.87088	692.11300	-412.35087	-255.10719	803.85087	-395.45405	-246.50735	685.42495	-379.61606	-192.19029	803.81722	-823.99237	-162.44610	685.87776	-839.90988	-94.42349	1153.57430	-416.03352	-103.08520	1041.56578	-421.95315	-156.40069	1018.54154	-389.48086	-207.26594	1155.77595	-394.70733	-207.69801	1037.92221	-402.92843	-64.58194	1155.77764	-827.12381	-64.48784	1019.43471	-811.92467	-174.90098	1151.69963	-852.05495	-174.62790	1015.90487	-827.97538	-83.87903	1417.68911	-477.93910	-248.78524	1484.35346	-602.77520	-34.12945	1407.96699	-743.83103	-232.85133	1483.55181	-693.67387	-13.58371	1948.75095	-637.65084	7.14474	1939.63859	-486.70607	45.28467	1927.16832	-751.27087	118.67122	1892.06169	-595.79667	136.08668	1895.56136	-641.13091	40.46219	1961.33677	-362.20499	96.94435	1888.75743	-142.97435	59.96704	1971.97489	-157.31124	221.70372	2020.97082	-198.94291	324.53602	2054.34311	-211.47045	324.76336	2081.83333	-178.50180	121.26881	1906.54464	-879.07678	227.76806	1751.59973	-1027.39741	223.02018	1841.24531	-1039.90990	292.89443	1874.38130	-891.12987	360.73071	1916.91108	-813.72808	393.19949	1931.24892	-845.42546	-167.32272	1352.51117	-530.50920	-127.67690	1334.65682	-739.42483	-160.29652	1347.03250	-529.96134	-129.44409	1345.48408	-705.92188	
187	1.86000000	-207.04358	945.69177	-433.67075	-178.42356	825.98397	-413.81279	-271.07907	488.53051	-415.45293	-303.96356	503.07225	-489.84908	-231.50072	335.63933	-372.98342	-157.45450	335.31893	-408.08295	-155.26500	925.51309	-799.43793	-109.45993	826.18929	-784.54894	-166.88064	479.44134	-789.75117	-233.72450	493.44565	-730.26445	-114.83819	328.48302	-795.86789	-66.96562	329.04148	-733.56607	-171.37280	710.64625	-413.29069	-255.60661	821.82367	-398.30513	-246.50054	703.37641	-381.68651	-191.51216	821.68871	-822.19211	-160.39113	704.17305	-838.23552	-90.69190	1170.69117	-420.38589	-100.08638	1058.67212	-426.49771	-152.17397	1035.80903	-392.10711	-202.64166	1173.00912	-395.34211	-203.87301	1055.27490	-403.96093	-64.41522	1173.63609	-826.68636	-65.04422	1037.08342	-810.91803	-174.83186	1169.98214	-850.96496	-175.46835	1034.11297	-825.30154	-81.66200	1435.73846	-477.36427	-248.33813	1499.38644	-602.98433	-34.06293	1425.67036	-746.03765	-233.36478	1498.05115	-692.73406	-10.94100	1966.29419	-639.00014	8.26151	1955.79709	-485.53952	46.97581	1943.86960	-752.96901	119.50850	1905.36021	-593.60176	137.43806	1908.22037	-638.69430	42.79018	1977.34637	-362.44302	107.72577	1901.49298	-147.11362	67.48742	1983.67208	-157.87342	227.76731	2039.23081	-199.36800	329.45774	2076.03863	-211.71111	329.28864	2102.21784	-177.74677	123.43143	1922.38103	-880.25528	235.52375	1765.95733	-1021.56211	229.58993	1855.06629	-1036.91884	297.74279	1892.36825	-887.60798	365.15510	1937.06505	-809.02683	397.94312	1951.73712	-842.07091	-164.37367	1369.04749	-530.13957	-126.34401	1350.81425	-739.31892	-157.96521	1363.66343	-528.63942	-128.31996	1361.01858	-706.37825	
